<?xml version="1.0" encoding="utf-8"?>
<!-- Svg Vector Icons : http://www.onlinewebfonts.com/icon -->
<!DOCTYPE svg PUBLIC "-//W3C//DTD SVG 1.1//EN" "http://www.w3.org/Graphics/SVG/1.1/DTD/svg11.dtd">
<svg version="1.1" xmlns="http://www.w3.org/2000/svg" xmlns:xlink="http://www.w3.org/1999/xlink" x="0px" y="0px" viewBox="0 0 1000 1000" enable-background="new 0 0 1000 1000" xml:space="preserve">
<metadata> Svg Vector Icons : http://www.onlinewebfonts.com/icon </metadata>
<g><g transform="translate(0.000000,511.000000) scale(0.100000,-0.100000)"><path d="M100,1105.3V569.4h535.9h535.9v535.9v535.9H635.9H100V1105.3z"/><path d="M2282,1105.3V569.4H2818h535.9v535.9v535.9H2818H2282V1105.3z"/><path d="M4444.9,1105.3V569.4h535.9h535.9v535.9v535.9h-535.9h-535.9V1105.3z"/><path d="M6627,1105.3V569.4h535.9h535.9v535.9v535.9h-535.9H6627V1105.3z"/><path d="M8803.2,1627.8c-7.7-5.7-13.4-246.9-13.4-535.9V569.4h545.5h545.5v535.9v535.9h-532.1C9055.9,1641.3,8809,1635.5,8803.2,1627.8z"/><path d="M138.3-1057.6v-363.7h4880.9H9900v363.7v363.7H5019.1H138.3V-1057.6z"/></g></g>
</svg>