<svg width="609" height="600" xmlns="http://www.w3.org/2000/svg">

 <g>
  <title>Layer 1</title>
  <ellipse ry="300" rx="300" id="svg_3" cy="300" cx="300" opacity="NaN" stroke="#bfc0c1" fill="#bfc0c1"/>
  <ellipse ry="1.5" rx="3" id="svg_4" cy="867.5" cx="527" stroke="#000" fill="#fff"/>
  <ellipse ry="100" rx="100" id="svg_5" cy="188" cx="300" stroke="null" fill="white"/>
  <path id="svg_6" d="m105.00132,403.00229" opacity="NaN" stroke="null" fill="white"/>
  <path stroke="null" id="svg_12" d="m120.80968,469.02846c5.14927,19.6643 89.41002,81.46638 186.778,81.46638c97.36798,0 159.13664,-49.62804 175.29789,-74.44296c16.16125,-24.81493 7.24451,-61.80162 -18.2565,-95.51231c-25.50101,-33.71069 -49.86555,-36.51895 -69.28106,-41.66959c-19.41551,-5.15063 -159.87263,-5.61791 -175.07511,-2.34099c-15.20248,3.27692 -41.41693,2.80873 -73.71689,44.94651c-32.29995,42.13778 -30.89561,67.88865 -25.74634,87.55295z" opacity="NaN" fill="#ffffff"/>
 </g>
</svg>